<?xml version="1.0" encoding="UTF-8" standalone="no"?>
<svg
   width="32.006001"
   height="28.785"
   viewBox="0 0 32.006001 28.785"
   version="1.1"
   id="svg1"
   sodipodi:docname="itch_io.svg"
   inkscape:version="1.3 (0e150ed6c4, 2023-07-21)"
   inkscape:export-filename="itch_io_white.svg"
   inkscape:export-xdpi="96"
   inkscape:export-ydpi="96"
   xmlns:inkscape="http://www.inkscape.org/namespaces/inkscape"
   xmlns:sodipodi="http://sodipodi.sourceforge.net/DTD/sodipodi-0.dtd"
   xmlns="http://www.w3.org/2000/svg"
   xmlns:svg="http://www.w3.org/2000/svg">
  <defs
     id="defs1" />
  <sodipodi:namedview
     id="namedview1"
     pagecolor="#ffffff"
     bordercolor="#111111"
     borderopacity="1"
     inkscape:showpageshadow="0"
     inkscape:pageopacity="0"
     inkscape:pagecheckerboard="1"
     inkscape:deskcolor="#d1d1d1"
     inkscape:zoom="47.09375"
     inkscape:cx="16"
     inkscape:cy="16"
     inkscape:window-width="3200"
     inkscape:window-height="1721"
     inkscape:window-x="2391"
     inkscape:window-y="-9"
     inkscape:window-maximized="1"
     inkscape:current-layer="svg1" />
  <path
     d="M 4.172,0.18300003 C 2.776,1.011 0.027,4.167 0,4.995 V 6.37 c 0,1.735 1.625,3.267 3.099,3.267 1.771,0 3.251,-1.469 3.251,-3.213 0,1.744 1.421,3.213 3.197,3.213 1.771,0 3.151,-1.469 3.151,-3.213 0,1.744 1.516,3.213 3.287,3.213 h 0.032 c 1.776,0 3.291,-1.469 3.291,-3.213 0,1.744 1.381,3.213 3.152,3.213 1.771,0 3.197,-1.469 3.197,-3.213 0,1.744 1.475,3.213 3.245,3.213 1.479,0 3.104,-1.532 3.104,-3.267 V 4.995 C 31.974,4.167 29.23,1.011 27.829,0.18300003 23.49,0.02700003 20.485,2.7656555e-8 16.006,2.7656555e-8 11.522,0.00500003 5.413,0.07300003 4.178,0.18300003 Z M 12.677,8.817 C 12.494,9.125 12.292,9.385 12.052,9.614 V 9.619 C 11.38,10.27 10.464,10.676 9.453,10.676 8.437,10.676 7.521,10.269 6.854,9.613 6.609,9.378 6.426,9.124 6.254,8.826 6.087,9.123 5.854,9.378 5.609,9.613 4.937,10.269 4.021,10.676 3.01,10.676 c 0,0 0,0 -0.005,0 -0.12,0 -0.245,-0.036 -0.349,-0.073 -0.14,1.485 -0.203,2.901 -0.224,3.937 v 0.005 c -0.005,0.527 -0.005,0.953 -0.011,1.552 0.032,3.115 -0.307,10.089 1.376,11.803 2.604,0.604 7.396,0.88 12.197,0.885 h 0.005 C 20.806,28.78 25.592,28.504 28.196,27.9 29.879,26.187 29.54,19.212 29.572,16.097 29.567,15.498 29.567,15.072 29.561,14.545 V 14.54 c -0.021,-1.036 -0.079,-2.452 -0.224,-3.937 -0.099,0.037 -0.229,0.073 -0.349,0.073 0,0 -0.005,0 -0.005,0 -1.011,0 -1.927,-0.407 -2.599,-1.063 h 0.005 C 26.144,9.378 25.91,9.124 25.744,8.826 h -0.005 c -0.167,0.297 -0.355,0.552 -0.595,0.787 -0.667,0.656 -1.583,1.063 -2.599,1.063 -1.011,0 -1.927,-0.407 -2.599,-1.063 C 19.706,9.384 19.503,9.118 19.331,8.826 L 19.32,8.81 c -0.172,0.308 -0.38,0.573 -0.615,0.803 -0.672,0.656 -1.588,1.063 -2.599,1.063 0,0 -0.005,0 -0.005,0 -0.031,0 -0.068,0 -0.104,-0.005 -0.036,0.005 -0.073,0.005 -0.109,0.005 0,0 0,0 -0.005,0 -1.011,0 -1.927,-0.407 -2.593,-1.063 C 13.05,9.384 12.847,9.118 12.681,8.826 L 12.67,8.81 Z m -2.672,3.454 c 1.057,0.005 1.995,0 3.161,1.271 0.916,-0.093 1.875,-0.14 2.833,-0.14 0.958,0 1.917,0.047 2.833,0.14 1.167,-1.271 2.104,-1.271 3.161,-1.271 h 0.005 c 0.5,0 2.5,0 3.891,3.912 l 1.495,5.369 c 1.109,3.995 -0.355,4.095 -2.177,4.095 -2.708,-0.1 -4.208,-2.068 -4.208,-4.037 -1.5,0.251 -3.251,0.371 -5,0.371 -1.749,0 -3.5,-0.12 -4.995,-0.371 0,1.969 -1.5,3.937 -4.208,4.037 -1.828,-0.005 -3.292,-0.1 -2.183,-4.095 l 1.495,-5.369 c 1.396,-3.912 3.396,-3.912 3.896,-3.912 z M 16,15.349 c -0.005,0 -2.849,2.62 -3.364,3.547 L 14.5,18.823 v 1.625 c 0,0.079 0.751,0.047 1.5,0.011 0.749,0.036 1.495,0.068 1.495,-0.011 v -1.625 l 1.869,0.073 C 18.849,17.969 16,15.349 16,15.349 Z"
     id="path1"
     style="fill:#999999;fill-opacity:1" />
</svg>
